<mxfile host="app.diagrams.net" agent="Mozilla/5.0 (Windows NT 10.0; Win64; x64; rv:132.0) Gecko/20100101 Firefox/132.0" version="24.8.4">
  <diagram name="Page-1" id="FncsBsidGPWUWkws9rxi">
    <mxGraphModel dx="2234" dy="1232" grid="1" gridSize="10" guides="1" tooltips="1" connect="1" arrows="1" fold="1" page="0" pageScale="1" pageWidth="827" pageHeight="1169" math="0" shadow="0">
      <root>
        <mxCell id="0" />
        <mxCell id="1" parent="0" />
        <mxCell id="_1UMDs2DOgb2wRNb5rlj-7" style="edgeStyle=none;curved=1;rounded=0;orthogonalLoop=1;jettySize=auto;html=1;entryX=0;entryY=0.5;entryDx=0;entryDy=0;fontSize=12;startSize=8;endSize=8;" edge="1" parent="1" source="_1UMDs2DOgb2wRNb5rlj-1" target="_1UMDs2DOgb2wRNb5rlj-2">
          <mxGeometry relative="1" as="geometry" />
        </mxCell>
        <mxCell id="_1UMDs2DOgb2wRNb5rlj-9" value="REST" style="edgeLabel;html=1;align=center;verticalAlign=middle;resizable=0;points=[];fontSize=12;" vertex="1" connectable="0" parent="_1UMDs2DOgb2wRNb5rlj-7">
          <mxGeometry x="-0.0784" relative="1" as="geometry">
            <mxPoint x="2" y="-9" as="offset" />
          </mxGeometry>
        </mxCell>
        <mxCell id="_1UMDs2DOgb2wRNb5rlj-1" value="API Gateway" style="rounded=1;whiteSpace=wrap;html=1;strokeColor=#042a60;strokeWidth=3;arcSize=19;fontFamily=Poppins;fontSource=https%3A%2F%2Ffonts.googleapis.com%2Fcss%3Ffamily%3DPoppins;fontSize=16;fontColor=#002058;fontStyle=0;labelBackgroundColor=none;labelBorderColor=none;" vertex="1" parent="1">
          <mxGeometry x="45" y="-39" width="100" height="333" as="geometry" />
        </mxCell>
        <mxCell id="_1UMDs2DOgb2wRNb5rlj-2" value="File-Storage" style="rounded=1;whiteSpace=wrap;html=1;strokeColor=#00AA9B;strokeWidth=3;arcSize=19;fontFamily=Poppins;fontSource=https%3A%2F%2Ffonts.googleapis.com%2Fcss%3Ffamily%3DPoppins;fontSize=16;fontColor=#002058;fontStyle=0;labelBackgroundColor=none;labelBorderColor=none;" vertex="1" parent="1">
          <mxGeometry x="247" y="-39" width="110" height="335" as="geometry" />
        </mxCell>
        <mxCell id="_1UMDs2DOgb2wRNb5rlj-3" value="&lt;div&gt;Nginx&lt;/div&gt;" style="rounded=1;whiteSpace=wrap;html=1;strokeColor=#042a60;strokeWidth=3;arcSize=15;fontFamily=Poppins;fontSource=https%3A%2F%2Ffonts.googleapis.com%2Fcss%3Ffamily%3DPoppins;fontSize=16;fontColor=#002058;fontStyle=0;labelBackgroundColor=none;labelBorderColor=none;" vertex="1" parent="1">
          <mxGeometry x="56.5" y="3" width="77" height="48" as="geometry" />
        </mxCell>
        <mxCell id="_1UMDs2DOgb2wRNb5rlj-4" value="Keycloak" style="rounded=1;whiteSpace=wrap;html=1;strokeColor=#042a60;strokeWidth=3;arcSize=15;fontFamily=Poppins;fontSource=https%3A%2F%2Ffonts.googleapis.com%2Fcss%3Ffamily%3DPoppins;fontSize=16;fontColor=#002058;fontStyle=0;labelBackgroundColor=none;labelBorderColor=none;" vertex="1" parent="1">
          <mxGeometry x="56.5" y="187" width="77" height="48" as="geometry" />
        </mxCell>
        <mxCell id="_1UMDs2DOgb2wRNb5rlj-10" style="edgeStyle=none;curved=1;rounded=0;orthogonalLoop=1;jettySize=auto;html=1;fontSize=12;startSize=8;endSize=8;" edge="1" parent="1" source="_1UMDs2DOgb2wRNb5rlj-5" target="_1UMDs2DOgb2wRNb5rlj-1">
          <mxGeometry relative="1" as="geometry" />
        </mxCell>
        <mxCell id="_1UMDs2DOgb2wRNb5rlj-11" value="REST" style="edgeLabel;html=1;align=center;verticalAlign=middle;resizable=0;points=[];fontSize=12;" vertex="1" connectable="0" parent="_1UMDs2DOgb2wRNb5rlj-10">
          <mxGeometry x="0.0783" y="-1" relative="1" as="geometry">
            <mxPoint x="-7" y="-11" as="offset" />
          </mxGeometry>
        </mxCell>
        <mxCell id="_1UMDs2DOgb2wRNb5rlj-5" value="Application cliente" style="rounded=1;whiteSpace=wrap;html=1;strokeColor=#F04641;strokeWidth=3;arcSize=15;fontFamily=Poppins;fontSource=https%3A%2F%2Ffonts.googleapis.com%2Fcss%3Ffamily%3DPoppins;fontSize=16;fontColor=#002058;fontStyle=0;labelBackgroundColor=none;labelBorderColor=none;" vertex="1" parent="1">
          <mxGeometry x="-177" y="98.5" width="120" height="60" as="geometry" />
        </mxCell>
        <mxCell id="_1UMDs2DOgb2wRNb5rlj-12" value="File-Storage" style="rounded=1;whiteSpace=wrap;html=1;strokeColor=#00AA9B;strokeWidth=3;arcSize=19;fontFamily=Poppins;fontSource=https%3A%2F%2Ffonts.googleapis.com%2Fcss%3Ffamily%3DPoppins;fontSize=16;fontColor=#002058;fontStyle=0;labelBackgroundColor=none;labelBorderColor=none;" vertex="1" parent="1">
          <mxGeometry x="-266" y="328" width="110" height="253" as="geometry" />
        </mxCell>
        <mxCell id="_1UMDs2DOgb2wRNb5rlj-13" value="&lt;div&gt;application&lt;br&gt;&lt;/div&gt;&lt;div&gt;AES-256 private key&lt;/div&gt;" style="rounded=1;whiteSpace=wrap;html=1;strokeColor=#00AA9B;strokeWidth=3;arcSize=19;fontFamily=Poppins;fontSource=https%3A%2F%2Ffonts.googleapis.com%2Fcss%3Ffamily%3DPoppins;fontSize=16;fontColor=#002058;fontStyle=0;labelBackgroundColor=none;labelBorderColor=none;" vertex="1" parent="1">
          <mxGeometry x="-261" y="362" width="100" height="65" as="geometry" />
        </mxCell>
        <mxCell id="_1UMDs2DOgb2wRNb5rlj-14" value="" style="strokeWidth=3;html=1;shape=mxgraph.flowchart.database;whiteSpace=wrap;rounded=1;fontFamily=Helvetica;fontSource=https%3A%2F%2Ffonts.googleapis.com%2Fcss%3Ffamily%3DAverage%2BSans;fontSize=12;fontColor=default;fontStyle=0;strokeColor=#001C54;arcSize=50;fillColor=#FFFFFF;" vertex="1" parent="1">
          <mxGeometry x="-20" y="475.5" width="50" height="40" as="geometry" />
        </mxCell>
        <mxCell id="_1UMDs2DOgb2wRNb5rlj-15" value="Postgres" style="text;html=1;strokeColor=none;fillColor=none;align=center;verticalAlign=middle;whiteSpace=wrap;rounded=0;fontFamily=Poppins;fontSource=https%3A%2F%2Ffonts.googleapis.com%2Fcss%3Ffamily%3DPoppins;fontColor=#002058;fontSize=16;fontStyle=0" vertex="1" parent="1">
          <mxGeometry x="-33" y="512" width="80" height="20" as="geometry" />
        </mxCell>
        <mxCell id="_1UMDs2DOgb2wRNb5rlj-18" style="edgeStyle=none;curved=1;rounded=0;orthogonalLoop=1;jettySize=auto;html=1;fontSize=12;startSize=8;endSize=8;entryX=0;entryY=0.25;entryDx=0;entryDy=0;" edge="1" parent="1" source="_1UMDs2DOgb2wRNb5rlj-17" target="_1UMDs2DOgb2wRNb5rlj-12">
          <mxGeometry relative="1" as="geometry" />
        </mxCell>
        <mxCell id="_1UMDs2DOgb2wRNb5rlj-21" value="&lt;div&gt;import AES-256 custom key&lt;/div&gt;&lt;div&gt;(encoded as base64 string)&lt;br&gt;&lt;/div&gt;" style="edgeLabel;html=1;align=center;verticalAlign=middle;resizable=0;points=[];fontSize=12;" vertex="1" connectable="0" parent="_1UMDs2DOgb2wRNb5rlj-18">
          <mxGeometry x="0.1429" y="-2" relative="1" as="geometry">
            <mxPoint x="-20" y="2" as="offset" />
          </mxGeometry>
        </mxCell>
        <mxCell id="_1UMDs2DOgb2wRNb5rlj-17" value="" style="shape=umlActor;verticalLabelPosition=bottom;verticalAlign=top;html=1;outlineConnect=0;" vertex="1" parent="1">
          <mxGeometry x="-495" y="465.5" width="30" height="60" as="geometry" />
        </mxCell>
        <mxCell id="_1UMDs2DOgb2wRNb5rlj-22" style="edgeStyle=none;curved=1;rounded=0;orthogonalLoop=1;jettySize=auto;html=1;entryX=0;entryY=0.15;entryDx=0;entryDy=0;entryPerimeter=0;fontSize=12;startSize=8;endSize=8;exitX=1;exitY=0.25;exitDx=0;exitDy=0;" edge="1" parent="1" source="_1UMDs2DOgb2wRNb5rlj-12" target="_1UMDs2DOgb2wRNb5rlj-14">
          <mxGeometry relative="1" as="geometry" />
        </mxCell>
        <mxCell id="_1UMDs2DOgb2wRNb5rlj-23" value="base64 string ciphered by application private key" style="edgeLabel;html=1;align=center;verticalAlign=middle;resizable=0;points=[];fontSize=12;" vertex="1" connectable="0" parent="_1UMDs2DOgb2wRNb5rlj-22">
          <mxGeometry x="-0.0142" y="2" relative="1" as="geometry">
            <mxPoint x="79" y="-8" as="offset" />
          </mxGeometry>
        </mxCell>
        <mxCell id="_1UMDs2DOgb2wRNb5rlj-37" style="edgeStyle=none;curved=1;rounded=0;orthogonalLoop=1;jettySize=auto;html=1;fontSize=12;startSize=8;endSize=8;" edge="1" parent="1" source="_1UMDs2DOgb2wRNb5rlj-27" target="_1UMDs2DOgb2wRNb5rlj-35">
          <mxGeometry relative="1" as="geometry" />
        </mxCell>
        <mxCell id="_1UMDs2DOgb2wRNb5rlj-38" value="2) Création StorageFile" style="edgeLabel;html=1;align=center;verticalAlign=middle;resizable=0;points=[];fontSize=12;" vertex="1" connectable="0" parent="_1UMDs2DOgb2wRNb5rlj-37">
          <mxGeometry x="0.3419" y="-5" relative="1" as="geometry">
            <mxPoint y="23" as="offset" />
          </mxGeometry>
        </mxCell>
        <mxCell id="_1UMDs2DOgb2wRNb5rlj-40" style="edgeStyle=none;curved=1;rounded=0;orthogonalLoop=1;jettySize=auto;html=1;fontSize=12;startSize=8;endSize=8;" edge="1" parent="1" source="_1UMDs2DOgb2wRNb5rlj-27" target="_1UMDs2DOgb2wRNb5rlj-41">
          <mxGeometry relative="1" as="geometry">
            <mxPoint x="-137" y="1025" as="targetPoint" />
          </mxGeometry>
        </mxCell>
        <mxCell id="_1UMDs2DOgb2wRNb5rlj-42" value="3) Stockage du fichier physique&lt;br&gt;(après compression/chiffrement)" style="edgeLabel;html=1;align=center;verticalAlign=middle;resizable=0;points=[];fontSize=12;" vertex="1" connectable="0" parent="_1UMDs2DOgb2wRNb5rlj-40">
          <mxGeometry x="0.0538" y="1" relative="1" as="geometry">
            <mxPoint x="-8" y="1" as="offset" />
          </mxGeometry>
        </mxCell>
        <mxCell id="_1UMDs2DOgb2wRNb5rlj-27" value="File-Storage" style="rounded=1;whiteSpace=wrap;html=1;strokeColor=#00AA9B;strokeWidth=3;arcSize=19;fontFamily=Poppins;fontSource=https%3A%2F%2Ffonts.googleapis.com%2Fcss%3Ffamily%3DPoppins;fontSize=16;fontColor=#002058;fontStyle=0;labelBackgroundColor=none;labelBorderColor=none;" vertex="1" parent="1">
          <mxGeometry x="-359" y="956" width="110" height="143" as="geometry" />
        </mxCell>
        <mxCell id="_1UMDs2DOgb2wRNb5rlj-30" style="edgeStyle=none;curved=1;rounded=0;orthogonalLoop=1;jettySize=auto;html=1;fontSize=12;startSize=8;endSize=8;" edge="1" parent="1" source="_1UMDs2DOgb2wRNb5rlj-32">
          <mxGeometry relative="1" as="geometry">
            <mxPoint x="-362" y="1025.735849056604" as="targetPoint" />
          </mxGeometry>
        </mxCell>
        <mxCell id="_1UMDs2DOgb2wRNb5rlj-31" value="1) Import/Upload" style="edgeLabel;html=1;align=center;verticalAlign=middle;resizable=0;points=[];fontSize=12;" vertex="1" connectable="0" parent="_1UMDs2DOgb2wRNb5rlj-30">
          <mxGeometry x="0.0783" y="-1" relative="1" as="geometry">
            <mxPoint x="-7" y="-11" as="offset" />
          </mxGeometry>
        </mxCell>
        <mxCell id="_1UMDs2DOgb2wRNb5rlj-79" style="edgeStyle=none;curved=1;rounded=0;orthogonalLoop=1;jettySize=auto;html=1;entryX=0.5;entryY=1;entryDx=0;entryDy=0;fontSize=12;startSize=8;endSize=8;" edge="1" parent="1" source="_1UMDs2DOgb2wRNb5rlj-32" target="_1UMDs2DOgb2wRNb5rlj-27">
          <mxGeometry relative="1" as="geometry">
            <Array as="points">
              <mxPoint x="-443" y="1219" />
            </Array>
          </mxGeometry>
        </mxCell>
        <mxCell id="_1UMDs2DOgb2wRNb5rlj-80" value="7) Get content" style="edgeLabel;html=1;align=center;verticalAlign=middle;resizable=0;points=[];fontSize=12;" vertex="1" connectable="0" parent="_1UMDs2DOgb2wRNb5rlj-79">
          <mxGeometry x="-0.3312" y="40" relative="1" as="geometry">
            <mxPoint as="offset" />
          </mxGeometry>
        </mxCell>
        <mxCell id="_1UMDs2DOgb2wRNb5rlj-32" value="Application cliente" style="rounded=1;whiteSpace=wrap;html=1;strokeColor=#F04641;strokeWidth=3;arcSize=15;fontFamily=Poppins;fontSource=https%3A%2F%2Ffonts.googleapis.com%2Fcss%3Ffamily%3DPoppins;fontSize=16;fontColor=#002058;fontStyle=0;labelBackgroundColor=none;labelBorderColor=none;" vertex="1" parent="1">
          <mxGeometry x="-584" y="996.5" width="120" height="60" as="geometry" />
        </mxCell>
        <mxCell id="_1UMDs2DOgb2wRNb5rlj-35" value="" style="strokeWidth=3;html=1;shape=mxgraph.flowchart.database;whiteSpace=wrap;rounded=1;fontFamily=Helvetica;fontSource=https%3A%2F%2Ffonts.googleapis.com%2Fcss%3Ffamily%3DAverage%2BSans;fontSize=12;fontColor=default;fontStyle=0;strokeColor=#001C54;arcSize=50;fillColor=#FFFFFF;" vertex="1" parent="1">
          <mxGeometry x="-326" y="815" width="50" height="40" as="geometry" />
        </mxCell>
        <mxCell id="_1UMDs2DOgb2wRNb5rlj-36" value="Postgres" style="text;html=1;strokeColor=none;fillColor=none;align=center;verticalAlign=middle;whiteSpace=wrap;rounded=0;fontFamily=Poppins;fontSource=https%3A%2F%2Ffonts.googleapis.com%2Fcss%3Ffamily%3DPoppins;fontColor=#002058;fontSize=16;fontStyle=0" vertex="1" parent="1">
          <mxGeometry x="-341" y="866" width="80" height="20" as="geometry" />
        </mxCell>
        <mxCell id="_1UMDs2DOgb2wRNb5rlj-41" value="Hot FileStore" style="rounded=1;whiteSpace=wrap;html=1;strokeColor=#0095db;strokeWidth=3;arcSize=15;fontFamily=Poppins;fontSource=https%3A%2F%2Ffonts.googleapis.com%2Fcss%3Ffamily%3DPoppins;fontSize=16;fontColor=#002058;fontStyle=0" vertex="1" parent="1">
          <mxGeometry x="-17" y="996.5" width="120" height="60" as="geometry" />
        </mxCell>
        <mxCell id="_1UMDs2DOgb2wRNb5rlj-81" style="edgeStyle=none;curved=0;rounded=0;orthogonalLoop=1;jettySize=auto;html=1;fontSize=12;startSize=8;endSize=8;entryX=0.75;entryY=1;entryDx=0;entryDy=0;" edge="1" parent="1" source="_1UMDs2DOgb2wRNb5rlj-43" target="_1UMDs2DOgb2wRNb5rlj-41">
          <mxGeometry relative="1" as="geometry">
            <Array as="points">
              <mxPoint x="480" y="835" />
              <mxPoint x="480" y="960" />
              <mxPoint x="480" y="1080" />
              <mxPoint x="300" y="1080" />
              <mxPoint x="73" y="1080" />
            </Array>
          </mxGeometry>
        </mxCell>
        <mxCell id="_1UMDs2DOgb2wRNb5rlj-43" value="Cold FileStore" style="rounded=1;whiteSpace=wrap;html=1;strokeColor=#0095db;strokeWidth=3;arcSize=15;fontFamily=Poppins;fontSource=https%3A%2F%2Ffonts.googleapis.com%2Fcss%3Ffamily%3DPoppins;fontSize=16;fontColor=#002058;fontStyle=0" vertex="1" parent="1">
          <mxGeometry x="265" y="805" width="120" height="60" as="geometry" />
        </mxCell>
        <mxCell id="_1UMDs2DOgb2wRNb5rlj-53" style="edgeStyle=none;curved=1;rounded=0;orthogonalLoop=1;jettySize=auto;html=1;entryX=1;entryY=0.5;entryDx=0;entryDy=0;fontSize=12;startSize=8;endSize=8;" edge="1" parent="1" source="_1UMDs2DOgb2wRNb5rlj-46" target="_1UMDs2DOgb2wRNb5rlj-41">
          <mxGeometry relative="1" as="geometry" />
        </mxCell>
        <mxCell id="_1UMDs2DOgb2wRNb5rlj-54" style="edgeStyle=none;curved=1;rounded=0;orthogonalLoop=1;jettySize=auto;html=1;fontSize=12;startSize=8;endSize=8;" edge="1" parent="1" source="_1UMDs2DOgb2wRNb5rlj-46" target="_1UMDs2DOgb2wRNb5rlj-43">
          <mxGeometry relative="1" as="geometry" />
        </mxCell>
        <mxCell id="_1UMDs2DOgb2wRNb5rlj-61" value="4) Copie du fichier physique" style="edgeLabel;html=1;align=center;verticalAlign=middle;resizable=0;points=[];fontSize=12;" vertex="1" connectable="0" parent="_1UMDs2DOgb2wRNb5rlj-54">
          <mxGeometry x="0.0863" relative="1" as="geometry">
            <mxPoint y="1" as="offset" />
          </mxGeometry>
        </mxCell>
        <mxCell id="_1UMDs2DOgb2wRNb5rlj-46" value="Cron : Copy to cold filestore" style="points=[[0.145,0.145,0],[0.5,0,0],[0.855,0.145,0],[1,0.5,0],[0.855,0.855,0],[0.5,1,0],[0.145,0.855,0],[0,0.5,0]];shape=mxgraph.bpmn.event;html=1;verticalLabelPosition=bottom;labelBackgroundColor=#ffffff;verticalAlign=top;align=center;perimeter=ellipsePerimeter;outlineConnect=0;aspect=fixed;outline=standard;symbol=timer;" vertex="1" parent="1">
          <mxGeometry x="311" y="1012.5" width="28" height="28" as="geometry" />
        </mxCell>
        <mxCell id="_1UMDs2DOgb2wRNb5rlj-60" value="Cron : Purge from hot filestore" style="points=[[0.145,0.145,0],[0.5,0,0],[0.855,0.145,0],[1,0.5,0],[0.855,0.855,0],[0.5,1,0],[0.145,0.855,0],[0,0.5,0]];shape=mxgraph.bpmn.event;html=1;verticalLabelPosition=bottom;labelBackgroundColor=#ffffff;verticalAlign=top;align=center;perimeter=ellipsePerimeter;outlineConnect=0;aspect=fixed;outline=standard;symbol=timer;" vertex="1" parent="1">
          <mxGeometry x="28.5" y="1152" width="28" height="28" as="geometry" />
        </mxCell>
        <mxCell id="_1UMDs2DOgb2wRNb5rlj-62" style="edgeStyle=none;curved=1;rounded=0;orthogonalLoop=1;jettySize=auto;html=1;entryX=0.5;entryY=1;entryDx=0;entryDy=0;fontSize=12;startSize=8;endSize=8;" edge="1" parent="1" source="_1UMDs2DOgb2wRNb5rlj-60" target="_1UMDs2DOgb2wRNb5rlj-41">
          <mxGeometry relative="1" as="geometry" />
        </mxCell>
        <mxCell id="_1UMDs2DOgb2wRNb5rlj-63" value="5) Suppression fichiers physique non accédé après x jours" style="edgeLabel;html=1;align=center;verticalAlign=middle;resizable=0;points=[];fontSize=12;" vertex="1" connectable="0" parent="_1UMDs2DOgb2wRNb5rlj-62">
          <mxGeometry x="0.082" y="-2" relative="1" as="geometry">
            <mxPoint x="-13" y="5" as="offset" />
          </mxGeometry>
        </mxCell>
        <mxCell id="_1UMDs2DOgb2wRNb5rlj-64" value="Cron : Set as read-only" style="points=[[0.145,0.145,0],[0.5,0,0],[0.855,0.145,0],[1,0.5,0],[0.855,0.855,0],[0.5,1,0],[0.145,0.855,0],[0,0.5,0]];shape=mxgraph.bpmn.event;html=1;verticalLabelPosition=bottom;labelBackgroundColor=#ffffff;verticalAlign=top;align=center;perimeter=ellipsePerimeter;outlineConnect=0;aspect=fixed;outline=standard;symbol=timer;" vertex="1" parent="1">
          <mxGeometry x="-584" y="821" width="28" height="28" as="geometry" />
        </mxCell>
        <mxCell id="_1UMDs2DOgb2wRNb5rlj-65" style="edgeStyle=none;curved=1;rounded=0;orthogonalLoop=1;jettySize=auto;html=1;entryX=0;entryY=0.5;entryDx=0;entryDy=0;entryPerimeter=0;fontSize=12;startSize=8;endSize=8;" edge="1" parent="1" source="_1UMDs2DOgb2wRNb5rlj-64" target="_1UMDs2DOgb2wRNb5rlj-35">
          <mxGeometry relative="1" as="geometry" />
        </mxCell>
        <mxCell id="_1UMDs2DOgb2wRNb5rlj-66" value="6) Passage en read-only&lt;br&gt;quand date dépassée" style="edgeLabel;html=1;align=center;verticalAlign=middle;resizable=0;points=[];fontSize=12;" vertex="1" connectable="0" parent="_1UMDs2DOgb2wRNb5rlj-65">
          <mxGeometry x="-0.1071" relative="1" as="geometry">
            <mxPoint as="offset" />
          </mxGeometry>
        </mxCell>
        <mxCell id="_1UMDs2DOgb2wRNb5rlj-70" style="edgeStyle=none;curved=1;rounded=0;orthogonalLoop=1;jettySize=auto;html=1;fontSize=12;startSize=8;endSize=8;" edge="1" parent="1" source="_1UMDs2DOgb2wRNb5rlj-67" target="_1UMDs2DOgb2wRNb5rlj-35">
          <mxGeometry relative="1" as="geometry" />
        </mxCell>
        <mxCell id="_1UMDs2DOgb2wRNb5rlj-71" style="edgeStyle=none;curved=1;rounded=0;orthogonalLoop=1;jettySize=auto;html=1;entryX=0;entryY=0.5;entryDx=0;entryDy=0;fontSize=12;startSize=8;endSize=8;" edge="1" parent="1" source="_1UMDs2DOgb2wRNb5rlj-67" target="_1UMDs2DOgb2wRNb5rlj-43">
          <mxGeometry relative="1" as="geometry" />
        </mxCell>
        <mxCell id="_1UMDs2DOgb2wRNb5rlj-72" style="edgeStyle=none;curved=1;rounded=0;orthogonalLoop=1;jettySize=auto;html=1;fontSize=12;startSize=8;endSize=8;" edge="1" parent="1" source="_1UMDs2DOgb2wRNb5rlj-67" target="_1UMDs2DOgb2wRNb5rlj-41">
          <mxGeometry relative="1" as="geometry" />
        </mxCell>
        <mxCell id="_1UMDs2DOgb2wRNb5rlj-73" value="7) Suppression fichier physique" style="edgeLabel;html=1;align=center;verticalAlign=middle;resizable=0;points=[];fontSize=12;" vertex="1" connectable="0" parent="_1UMDs2DOgb2wRNb5rlj-72">
          <mxGeometry x="0.2059" y="1" relative="1" as="geometry">
            <mxPoint as="offset" />
          </mxGeometry>
        </mxCell>
        <mxCell id="_1UMDs2DOgb2wRNb5rlj-67" value="Cron : Delete expired" style="points=[[0.145,0.145,0],[0.5,0,0],[0.855,0.145,0],[1,0.5,0],[0.855,0.855,0],[0.5,1,0],[0.145,0.855,0],[0,0.5,0]];shape=mxgraph.bpmn.event;html=1;verticalLabelPosition=bottom;labelBackgroundColor=#ffffff;verticalAlign=top;align=center;perimeter=ellipsePerimeter;outlineConnect=0;aspect=fixed;outline=standard;symbol=timer;" vertex="1" parent="1">
          <mxGeometry x="30" y="821" width="28" height="28" as="geometry" />
        </mxCell>
        <mxCell id="_1UMDs2DOgb2wRNb5rlj-74" value="7) Suppression fichier physique" style="edgeLabel;html=1;align=center;verticalAlign=middle;resizable=0;points=[];fontSize=12;" vertex="1" connectable="0" parent="1">
          <mxGeometry x="103.00014799206518" y="909.0026500973614" as="geometry">
            <mxPoint x="56" y="-87" as="offset" />
          </mxGeometry>
        </mxCell>
        <mxCell id="_1UMDs2DOgb2wRNb5rlj-75" value="8) Passage au statut &#39;deleted&#39;" style="edgeLabel;html=1;align=center;verticalAlign=middle;resizable=0;points=[];fontSize=12;" vertex="1" connectable="0" parent="1">
          <mxGeometry x="-207.99985200793483" y="906.0026500973614" as="geometry">
            <mxPoint x="56" y="-87" as="offset" />
          </mxGeometry>
        </mxCell>
      </root>
    </mxGraphModel>
  </diagram>
</mxfile>
